<svg width="54" height="54" viewBox="0 0 54 54" fill="none" xmlns="http://www.w3.org/2000/svg">
<path d="M48.5094 3.47533C48.2517 3.33748 47.939 3.35246 47.6958 3.51477C45.5822 4.92383 33.3196 5.99128 27.5605 0.232163C27.2509 -0.0773877 26.7492 -0.0773877 26.4396 0.232163C23.0783 3.59345 17.5032 4.62926 13.0222 4.62905C9.82511 4.62894 7.18449 4.10139 6.30446 3.51477C5.78713 3.16989 5.07227 3.5539 5.07227 4.17416V27.0003C5.07227 30.6222 6.22388 34.3012 8.49515 37.9352C10.289 40.8054 12.7834 43.6552 15.9089 46.4057C21.2042 51.0657 26.4152 53.7973 26.6345 53.9113C26.8615 54.0293 27.1388 54.0293 27.3658 53.9113C27.5851 53.7973 32.7961 51.0657 38.0915 46.4057C41.2169 43.6552 43.7115 40.8053 45.5052 37.9352C47.7763 34.3012 48.9281 30.6221 48.9281 27.0003V4.17416C48.928 3.8818 48.7671 3.61317 48.5094 3.47533ZM47.3429 27.0003C47.3429 34.5554 41.7559 41.0642 37.0687 45.1942C32.7019 49.0421 28.2782 51.6002 27.0001 52.3068C25.7218 51.6002 21.2983 49.042 16.9314 45.1942C12.2444 41.0643 6.65725 34.5554 6.65725 27.0003V5.40245C8.6542 6.07313 11.9479 6.37255 15.2235 6.12681C18.1237 5.90933 23.3778 5.06421 27.0001 1.87821C30.6223 5.06411 35.8764 5.90933 38.7766 6.12681C42.0519 6.37255 45.3458 6.07302 47.3429 5.40224V27.0003Z" fill="#E35191"/>
<path d="M44.7531 14.3014C45.1909 14.3014 45.5457 13.9465 45.5457 13.5088V8.57575C45.5457 8.10621 45.1214 7.73179 44.6555 7.78917C43.1166 7.98017 41.7386 8.00865 41.0543 8.00865C38.5687 8.00865 32.2661 7.66355 27.437 4.46659C27.1717 4.29109 26.8273 4.29109 26.562 4.46659C21.7331 7.66324 15.4304 8.00854 12.9447 8.00865C12.2602 8.00865 10.8823 7.98007 9.34328 7.78927C8.87743 7.73179 8.45312 8.10663 8.45312 8.57586V27.0003C8.45312 33.8545 13.6661 39.9064 18.0394 43.7765C21.4034 46.7533 24.8437 48.9535 26.595 49.9999C26.8428 50.1479 27.16 50.1481 27.4076 50.0001C29.1247 48.9753 32.5056 46.8161 35.8568 43.867C40.2768 39.9773 45.5457 33.8937 45.5457 27.0002V17.3131C45.5457 16.8754 45.1909 16.5205 44.7531 16.5205C44.3153 16.5205 43.9605 16.8754 43.9605 17.3131V27.0002C43.9605 33.3014 38.9841 39.0033 34.8095 42.6771C31.8001 45.3253 28.7631 47.3199 27.0016 48.3938C25.2073 47.2989 22.1148 45.2663 19.0899 42.5894C14.9605 38.9354 10.0382 33.2645 10.0382 27.0004V9.45832C11.2897 9.57391 12.3585 9.59384 12.9446 9.59384C15.5005 9.59374 21.8797 9.24316 26.9993 6.06876C32.1192 9.24337 38.4984 9.59384 41.054 9.59384C41.64 9.59384 42.7091 9.57402 43.9603 9.45832V13.5088C43.9605 13.9465 44.3153 14.3014 44.7531 14.3014Z" fill="#E35191"/>
<path d="M36.0915 25.3741C37.0843 24.2471 38.5849 22.544 38.5849 18.528C38.5849 16.7714 37.856 15.1524 36.5326 13.9688C35.2018 12.7787 33.3495 12.1233 31.3168 12.1233C29.759 12.1233 28.23 12.7684 27.0129 13.9183C25.7932 12.7687 24.2549 12.1233 22.6826 12.1233C20.6499 12.1233 18.7975 12.7787 17.4669 13.9688C16.1434 15.1522 15.4146 16.7714 15.4146 18.528C15.4146 22.544 16.9152 24.2471 17.9081 25.3741C18.725 26.3011 19.0003 26.6135 18.5075 27.6975C17.4716 29.9767 17.4473 32.4371 17.6093 34.0997C17.8046 36.1033 18.3781 38.0093 19.1438 39.1982C19.689 40.045 20.2988 40.4742 20.956 40.4742C21.9274 40.4742 22.3469 39.438 22.4849 39.0975C22.7257 38.5026 22.921 37.7402 23.147 36.8573C23.9708 33.6399 24.8294 30.9766 27 30.9766C29.1705 30.9766 30.0291 33.6399 30.853 36.8573C31.079 37.7401 31.2742 38.5025 31.5151 39.0975C31.653 39.4379 32.0724 40.4742 33.044 40.4742C33.7013 40.4742 34.311 40.0449 34.8561 39.1982C35.6216 38.0093 36.1954 36.1033 36.3907 34.0997C36.5527 32.4371 36.5284 29.9768 35.4924 27.6975C34.9994 26.6136 35.2745 26.3013 36.0915 25.3741ZM34.0488 28.3536C35.3687 31.2572 34.9528 35.3112 33.8913 37.6514C33.5743 38.3503 33.2891 38.6858 33.1281 38.82C32.8869 38.4115 32.6025 37.3015 32.3882 36.4642C32.0154 35.0083 31.5928 33.3582 30.8492 31.9993C29.9022 30.269 28.607 29.3916 26.9996 29.3916C25.3921 29.3916 24.0969 30.2689 23.1499 31.9993C22.4063 33.3583 21.9837 35.0084 21.6109 36.4642C21.3966 37.3014 21.1123 38.4114 20.871 38.82C20.7101 38.6858 20.4248 38.3504 20.1078 37.6514C19.0463 35.3111 18.6304 31.2573 19.9503 28.3536C20.8676 26.3354 19.9675 25.314 19.0972 24.3262C18.1626 23.2654 16.9994 21.9455 16.9994 18.5281C16.9994 15.7355 19.3895 13.7085 22.6824 13.7085C23.8554 13.7085 25.0549 14.2339 25.9888 15.1357C25.3793 16.0044 24.9871 16.4403 23.5458 16.4403C23.108 16.4403 22.7532 16.7952 22.7532 17.2329C22.7532 17.6706 23.108 18.0255 23.5458 18.0255C25.9106 18.0255 26.6747 16.9263 27.4139 15.8634C27.4676 15.7862 27.5241 15.7062 27.5804 15.6264C27.5946 15.6118 27.6092 15.5971 27.6225 15.5812C28.6121 14.3911 29.9586 13.7085 31.3166 13.7085C34.6095 13.7085 36.9996 15.7355 36.9996 18.5281C36.9996 21.9456 35.8364 23.2655 34.9018 24.3263C34.0316 25.3141 33.1315 26.3355 34.0488 28.3536Z" fill="#E35191"/>
</svg>
