<svg width="54" height="54" viewBox="0 0 54 54" fill="none" xmlns="http://www.w3.org/2000/svg">
<path d="M48.8166 47.8655L40.951 33.8526L41.6415 31.7273L46.7686 28.0023C47.0463 27.8005 47.1626 27.443 47.0565 27.1165L45.098 21.0892L47.0565 15.062C47.1626 14.7356 47.0463 14.3779 46.7686 14.1762L41.6415 10.4511L39.683 4.42376C39.5769 4.09734 39.2728 3.87638 38.9296 3.87638H32.592L27.4651 0.151322C27.1874 -0.0504405 26.8114 -0.0504405 26.5338 0.151322L21.4066 3.87638H15.0691C14.7259 3.87638 14.4217 4.09734 14.3156 4.42387L12.3572 10.4511L7.23002 14.1762C6.95232 14.3779 6.83609 14.7355 6.9422 15.0619L8.90065 21.0892L6.9422 27.1166C6.83609 27.443 6.95232 27.8005 7.23002 28.0023L12.3572 31.7274L13.0477 33.8527L10.9127 37.6562C10.6986 38.0378 10.8342 38.5207 11.2157 38.7348C11.3384 38.8037 11.4715 38.8363 11.6028 38.8363C11.8799 38.8363 12.149 38.6906 12.2943 38.4316L13.7138 35.9027L14.3155 37.7544C14.4216 38.0808 14.7258 38.3019 15.069 38.3019H21.4064L21.9553 38.7006L14.8527 51.354L13.1025 46.768C12.9662 46.4106 12.5942 46.2018 12.218 46.2714L7.3916 47.1659L10.358 41.8812C10.5721 41.4996 10.4365 41.0166 10.055 40.8025C9.67353 40.5884 9.19048 40.7241 8.97638 41.1056L5.18213 47.8653C4.85961 48.4398 5.37081 49.152 6.01734 49.032L11.8578 47.9495L13.9756 53.499C14.21 54.1137 15.0842 54.1787 15.4066 53.6044L23.246 39.6383L26.5337 42.0268C26.8082 42.2263 27.1904 42.2263 27.465 42.0268L30.7526 39.6382L38.592 53.6044C38.9144 54.1786 39.7884 54.1138 40.023 53.499L42.1409 47.9494L47.9813 49.0319C48.6277 49.1518 49.1392 48.4401 48.8166 47.8655ZM26.9994 40.4068L22.1297 36.8688C21.9944 36.7705 21.8315 36.7175 21.6641 36.7175H15.6449L13.7848 30.9928C13.7331 30.8337 13.6324 30.695 13.497 30.5966L8.62727 27.0586L10.4872 21.3338C10.539 21.1748 10.539 21.0033 10.4872 20.8442L8.62727 15.1195L13.497 11.5813C13.6324 11.483 13.733 11.3443 13.7848 11.1852L15.6449 5.46052H21.6641C21.8314 5.46052 21.9944 5.40758 22.1297 5.30918L26.9994 1.77111L31.8692 5.30918C32.0045 5.40747 32.1674 5.46052 32.3348 5.46052H38.354L40.2141 11.1853C40.2657 11.3443 40.3665 11.483 40.5019 11.5814L45.3717 15.1195L43.5117 20.8442C43.46 21.0033 43.46 21.1748 43.5117 21.3338L45.3717 27.0585L40.5019 30.5965C40.3666 30.6948 40.2659 30.8335 40.2141 30.9927L38.354 36.7174H32.3348C32.1675 36.7174 32.0045 36.7704 31.8692 36.8687L26.9994 40.4068ZM41.7806 46.2715C41.4038 46.2019 41.0323 46.4107 40.896 46.768L39.1458 51.3541L32.0432 38.7006L32.592 38.3019H38.9296C39.2728 38.3019 39.5769 38.0809 39.683 37.7544L40.2847 35.9026L46.607 47.1658L41.7806 46.2715Z" fill="#E35191"/>
<path d="M38.4129 15.7065C38.4046 15.689 38.3951 15.6727 38.3859 15.656C38.5082 14.9815 38.5798 14.2147 38.5798 13.3375C38.5798 11.5817 37.8513 9.96335 36.5283 8.7803C35.1982 7.59072 33.3467 6.93555 31.3148 6.93555C29.7577 6.93555 28.2294 7.58038 27.0127 8.72968C25.7936 7.58049 24.2561 6.93555 22.6844 6.93555C20.6525 6.93555 18.8009 7.59072 17.4707 8.7803C16.148 9.96335 15.4194 11.5818 15.4194 13.3375C15.4194 14.2136 15.4909 14.9795 15.6129 15.6534C14.7933 17.3609 14.3767 19.1937 14.3767 21.1049C14.3767 24.1656 15.4859 27.1177 17.5002 29.4176C17.5575 29.4831 17.6234 29.5366 17.6944 29.5784C17.9415 31.3276 18.4684 32.945 19.1469 33.9987C19.6918 34.845 20.3013 35.2742 20.9582 35.2742C21.9291 35.2742 22.3485 34.2384 22.4863 33.8981C22.5936 33.6333 22.6915 33.3338 22.7872 33.0069C24.1359 33.4849 25.5491 33.7278 26.9993 33.7278C28.4504 33.7278 29.8633 33.4851 31.2115 33.0072C31.3073 33.334 31.4054 33.6334 31.5124 33.8982C31.6505 34.2385 32.0699 35.2742 33.0408 35.2742C33.6979 35.2742 34.3073 34.8451 34.8521 33.9987C35.5258 32.9525 36.0505 31.3506 36.2996 29.6159C36.343 29.584 36.384 29.5472 36.4213 29.5054C38.4855 27.1916 39.6224 24.2083 39.6224 21.1047C39.6225 19.2167 39.2155 17.4004 38.4129 15.7065ZM18.511 22.5031C17.8533 23.95 17.6043 25.4692 17.551 26.8116C16.5175 25.101 15.9612 23.1304 15.9612 21.1049C15.9612 20.0532 16.1057 19.0291 16.3905 18.0423C16.8716 18.9998 17.4472 19.6534 17.9118 20.1806C18.7284 21.1073 19.0035 21.4195 18.511 22.5031ZM26.9995 32.1434C25.6879 32.1434 24.4112 31.9173 23.1967 31.471C24.0058 28.34 24.8722 25.7808 26.9995 25.7808C29.1265 25.7808 29.9932 28.3398 30.8022 31.4706C29.5881 31.9168 28.3121 32.1434 26.9995 32.1434ZM34.0455 23.1588C35.3648 26.0612 34.9492 30.1134 33.8881 32.4526C33.5712 33.1512 33.2861 33.4866 33.1253 33.6207C32.8842 33.2124 32.5998 32.1029 32.3856 31.266C32.0131 29.8107 31.5906 28.1613 30.8474 26.8029C29.9008 25.0734 28.6061 24.1964 26.9994 24.1964C25.3927 24.1964 24.0981 25.0734 23.1515 26.8029C22.4081 28.1614 21.9858 29.8108 21.6132 31.266C21.3991 32.1028 21.115 33.2123 20.8737 33.6207C20.713 33.4866 20.4277 33.1513 20.1108 32.4526C19.0498 30.1134 18.6342 26.0613 19.9535 23.1588C20.8703 21.1416 19.9707 20.1205 19.1008 19.133C18.1665 18.0729 17.0038 16.7533 17.0038 13.3374C17.0038 10.5459 19.3929 8.5199 22.6844 8.5199C23.8569 8.5199 25.0561 9.04514 25.9894 9.94647C25.3802 10.8149 24.9881 11.2506 23.5473 11.2506C23.1098 11.2506 22.7551 11.6053 22.7551 12.0429C22.7551 12.4805 23.1097 12.8352 23.5473 12.8352C25.9112 12.8352 26.6751 11.7364 27.4138 10.6738C27.4675 10.5966 27.5238 10.5167 27.58 10.4371C27.5943 10.4225 27.6088 10.4079 27.6221 10.3919C28.6112 9.20229 29.9572 8.52001 31.3147 8.52001C34.6063 8.52001 36.9953 10.5462 36.9953 13.3375C36.9953 16.7533 35.8326 18.0729 34.8983 19.1331C34.0283 20.1205 33.1287 21.1416 34.0455 23.1588ZM36.4482 26.8132C36.395 25.4705 36.1461 23.9505 35.4882 22.5031C34.9957 21.4195 35.2707 21.1073 36.0874 20.1806C36.5519 19.6533 37.1275 18.9999 37.6086 18.0424C37.8936 19.03 38.038 20.0545 38.038 21.1049C38.038 23.1334 37.4823 25.1029 36.4482 26.8132Z" fill="#E35191"/>
</svg>
