<svg width="54" height="54" viewBox="0 0 54 54" fill="none" xmlns="http://www.w3.org/2000/svg">
<g clip-path="url(#clip0)">
<path d="M53.207 44.8063H49.4217L46.4284 36.5747C46.0122 35.4303 44.9147 34.6616 43.6971 34.6616H38.7823V0.792598C38.7823 0.354797 38.4274 0 37.9897 0H26.9995C26.7893 0 26.5876 0.0835313 26.4391 0.232031L23.0203 3.65101L22.9828 3.61357C22.6733 3.30413 22.1715 3.30413 21.862 3.61357L20.629 4.84661L19.9937 4.21147C19.7968 4.01467 19.5111 3.93557 19.2411 4.00296L14.4588 5.19855C13.8728 5.34505 13.6627 6.09989 14.0907 6.52799L21.2641 13.7014C21.6921 14.1294 22.447 13.9188 22.5934 13.3333L23.789 8.55088C23.8565 8.28077 23.7774 7.99506 23.5805 7.79815L22.9454 7.16302L24.1783 5.93009C24.4879 5.62043 24.4879 5.11871 24.1783 4.80916L24.141 4.77183L27.3278 1.58498H37.1973V34.6613H27.7922V31.1739H30.3813C30.8189 31.1739 31.1738 30.8191 31.1738 30.3813C31.1738 29.9435 30.8189 29.5887 30.3813 29.5887H23.6181C23.1804 29.5887 22.8255 29.9435 22.8255 30.3813C22.8255 30.8191 23.1804 31.1739 23.6181 31.1739H26.2071V34.6613H23.5537L4.96064 16.0682C3.82759 14.9352 1.98389 14.9352 0.850844 16.0682C-0.282312 17.2013 -0.282312 19.045 0.850844 20.1782L4.49679 23.824C4.80634 24.1337 5.30816 24.1336 5.61761 23.8241C5.92716 23.5146 5.92716 23.0128 5.61761 22.7032L1.97166 19.0571C1.45655 18.542 1.45655 17.7041 1.97166 17.189C2.48677 16.6738 3.32472 16.6738 3.83983 17.189L22.6651 36.0143C22.8137 36.1629 23.0152 36.2463 23.2254 36.2463H43.6973C44.2507 36.2463 44.7496 36.5959 44.9388 37.1159L47.7352 44.8059H44.9241L42.9619 39.4098C42.848 39.0965 42.5502 38.888 42.2171 38.888H22.3499C21.997 38.888 21.6653 38.7506 21.4159 38.5012L8.45324 25.5389C8.14369 25.2295 7.64187 25.2295 7.33243 25.5389C7.02287 25.8486 7.02287 26.3503 7.33243 26.6599L20.2952 39.6225C20.844 40.1713 21.5739 40.4736 22.35 40.4736H22.8256V52.4149H20.9763C20.5386 52.4149 20.1837 52.7697 20.1837 53.2075C20.1837 53.6453 20.5386 54.0001 20.9763 54.0001H32.9176C33.3553 54.0001 33.7102 53.6453 33.7102 53.2075C33.7102 52.7697 33.3553 52.4149 32.9176 52.4149H31.174V40.4736H41.6619L43.624 45.8697C43.7379 46.183 44.0357 46.3915 44.3688 46.3915H53.2071C53.6448 46.3915 53.9997 46.0367 53.9997 45.5989C53.9997 45.1611 53.6447 44.8063 53.207 44.8063ZM21.3951 11.5908L16.2013 6.397L19.1902 5.64975L22.1423 8.60193L21.3951 11.5908ZM21.8246 6.0422L21.7499 5.96753L22.4224 5.29506L22.497 5.36973L21.8246 6.0422ZM29.5887 52.4149H24.4106V40.4736H29.5887V52.4149Z" fill="#E35191"/>
</g>
<defs>
<clipPath id="clip0">
<rect width="54" height="54" fill="white"/>
</clipPath>
</defs>
</svg>
