<svg width="54" height="54" viewBox="0 0 54 54" fill="none" xmlns="http://www.w3.org/2000/svg">
<g clip-path="url(#clip0)">
<path d="M48.1353 2.53621H31.3626C30.4766 0.97991 28.8169 0 27.0003 0C25.1837 0 23.5241 0.97991 22.638 2.53621H5.86535C5.42755 2.53621 5.07275 2.89111 5.07275 3.3288V53.2075C5.07275 53.6452 5.42755 54.0001 5.86535 54.0001H48.1354C48.5732 54.0001 48.928 53.6452 48.928 53.2075V3.3288C48.9279 2.89111 48.5731 2.53621 48.1353 2.53621ZM21.0296 4.1213H22.8789C23.0247 4.1213 23.1765 4.13311 23.319 4.09736C23.555 4.03808 23.7548 3.86933 23.8522 3.64627C24.3996 2.39414 25.6353 1.58509 27.0003 1.58509C28.3654 1.58509 29.6011 2.39414 30.1484 3.64616C30.2562 3.89275 30.4884 4.07141 30.7544 4.11223C30.8971 4.13406 31.0481 4.1213 31.1921 4.1213H32.9709V9.29939H21.0296V4.1213ZM47.3428 52.4149H6.65784V4.1213H19.4446V5.07241H10.0923C9.65453 5.07241 9.29973 5.42732 9.29973 5.86501V16.8904C9.29973 17.3281 9.65453 17.683 10.0923 17.683C10.5301 17.683 10.8849 17.3281 10.8849 16.8904V6.6575H19.4447V10.092C19.4447 10.5297 19.7995 10.8846 20.2373 10.8846H33.7636C34.2014 10.8846 34.5562 10.5297 34.5562 10.092V6.6575H43.116V43.9609H37.9907C37.5591 43.9609 37.1981 44.3219 37.1981 44.7535V49.8787H10.8849V20.6243C10.8849 20.1866 10.5301 19.8317 10.0923 19.8317C9.65453 19.8317 9.29973 20.1866 9.29973 20.6243V50.6712C9.29973 51.1089 9.65453 51.4638 10.0923 51.4638H37.9906C38.1985 51.4638 38.4041 51.3784 38.5511 51.2317L44.4689 45.3138C44.6158 45.1669 44.701 44.961 44.701 44.7533V5.86491C44.701 5.43333 44.3399 5.07231 43.9084 5.07231L34.5561 5.07241V4.1213H47.3428V52.4149V52.4149ZM41.9949 45.5459L38.7832 48.7578V45.5459H41.9949Z" fill="#E35191"/>
<path d="M33.7628 43.1154H20.2364C19.7986 43.1154 19.4438 43.4703 19.4438 43.908C19.4438 44.3457 19.7986 44.7006 20.2364 44.7006H33.7628C34.2006 44.7006 34.5554 44.3457 34.5554 43.908C34.5554 43.4703 34.2006 43.1154 33.7628 43.1154Z" fill="#E35191"/>
<path d="M23.6181 46.4971H20.2364C19.7986 46.4971 19.4438 46.852 19.4438 47.2897C19.4438 47.7273 19.7986 48.0822 20.2364 48.0822H23.6181C24.0559 48.0822 24.4107 47.7273 24.4107 47.2897C24.4107 46.852 24.056 46.4971 23.6181 46.4971Z" fill="#E35191"/>
<path d="M33.7628 46.4971H26.9996C26.5618 46.4971 26.207 46.852 26.207 47.2897C26.207 47.7273 26.5618 48.0822 26.9996 48.0822H33.7628C34.2006 48.0822 34.5554 47.7273 34.5554 47.2897C34.5554 46.852 34.2006 46.4971 33.7628 46.4971Z" fill="#E35191"/>
<path d="M27 3.38165C25.6307 3.38165 24.5166 4.49572 24.5166 5.86502C24.5166 7.23432 25.6307 8.34839 27 8.34839C28.3693 8.34839 29.4833 7.23432 29.4833 5.86502C29.4833 4.49561 28.3693 3.38165 27 3.38165ZM27 6.76319C26.5047 6.76319 26.1017 6.3603 26.1017 5.86492C26.1017 5.36963 26.5046 4.96664 27 4.96664C27.4954 4.96664 27.8983 5.36953 27.8983 5.86492C27.8983 6.3603 27.4953 6.76319 27 6.76319Z" fill="#E35191"/>
<path d="M36.0915 25.864C37.0844 24.7371 38.585 23.0342 38.585 19.018C38.585 17.2614 37.8562 15.6425 36.5327 14.4589C35.2019 13.2688 33.3497 12.6134 31.317 12.6134C29.7592 12.6134 28.2302 13.2586 27.0131 14.4083C25.7933 13.2587 24.2552 12.6134 22.6829 12.6134C20.6502 12.6134 18.7978 13.2688 17.4671 14.4589C16.1436 15.6425 15.4148 17.2615 15.4148 19.018C15.4148 23.034 16.9154 24.7371 17.9083 25.864C18.7249 26.7911 19.0002 27.1035 18.5075 28.1875C17.4715 30.4666 17.4472 32.9269 17.6092 34.5895C17.8045 36.5931 18.378 38.499 19.1436 39.6879C19.6888 40.5347 20.2985 40.964 20.9558 40.964C21.9272 40.964 22.3467 39.9277 22.4846 39.5872C22.7254 38.9923 22.9207 38.2299 23.1467 37.347C23.9705 34.1296 24.8292 31.4664 26.9996 31.4664C29.17 31.4664 30.0287 34.1296 30.8525 37.347C31.0785 38.2298 31.2737 38.9921 31.5146 39.5872C31.6526 39.9276 32.0719 40.964 33.0434 40.964C33.7007 40.964 34.3104 40.5346 34.8555 39.6879C35.621 38.499 36.1948 36.5931 36.39 34.5895C36.552 32.9269 36.5277 30.4668 35.4917 28.1875C34.9994 27.1035 35.2746 26.7911 36.0915 25.864ZM34.0488 28.8433C35.3686 31.7469 34.9529 35.8008 33.8913 38.1409C33.5743 38.8398 33.2891 39.1753 33.1282 39.3095C32.887 38.901 32.6025 37.791 32.3882 36.9537C32.0155 35.4978 31.5929 33.8477 30.8493 32.4888C29.9023 30.7585 28.6071 29.8812 26.9998 29.8812C25.3924 29.8812 24.0972 30.7585 23.1503 32.4888C22.4066 33.8478 21.984 35.4979 21.6114 36.9537C21.3971 37.7909 21.1127 38.9009 20.8714 39.3095C20.7106 39.1754 20.4253 38.8399 20.1083 38.1409C19.0467 35.8007 18.631 31.7469 19.9508 28.8433C20.8681 26.8252 19.968 25.8038 19.0977 24.8159C18.1631 23.7552 16.9999 22.4351 16.9999 19.0179C17 16.2254 19.3899 14.1985 22.6829 14.1985C23.8559 14.1985 25.0554 14.724 25.9892 15.6256C25.3797 16.4944 24.9875 16.9303 23.5462 16.9303C23.1084 16.9303 22.7536 17.2852 22.7536 17.7229C22.7536 18.1606 23.1084 18.5155 23.5462 18.5155C25.9111 18.5155 26.6753 17.4163 27.4144 16.3532C27.4681 16.2762 27.5244 16.1962 27.5806 16.1166C27.595 16.1018 27.6095 16.0872 27.6228 16.0711C28.6124 14.881 29.9588 14.1984 31.3169 14.1984C34.6098 14.1984 36.9997 16.2254 36.9997 19.0179C36.9997 22.4351 35.8365 23.7553 34.902 24.8159C34.0315 25.8038 33.1315 26.8252 34.0488 28.8433Z" fill="#E35191"/>
</g>
<defs>
<clipPath id="clip0">
<rect width="54" height="54" fill="white"/>
</clipPath>
</defs>
</svg>
